<?xml version="1.0" standalone="no"?>
<!DOCTYPE svg PUBLIC "-//W3C//DTD SVG 20010904//EN"
 "http://www.w3.org/TR/2001/REC-SVG-20010904/DTD/svg10.dtd">
<svg version="1.0" xmlns="http://www.w3.org/2000/svg"
 width="1200.000000pt" height="1200.000000pt" viewBox="0 0 1200.000000 1200.000000"
 preserveAspectRatio="xMidYMid meet">

<g transform="translate(0.000000,1200.000000) scale(0.100000,-0.100000)"
fill="#000000" stroke="none">
<path d="M3610 5352 c0 -2388 -2 -2780 -15 -2918 -28 -289 -60 -456 -169 -869
-100 -376 -127 -514 -133 -682 -5 -123 -3 -156 16 -236 35 -153 120 -304 214
-381 138 -113 345 -143 534 -76 222 78 383 320 383 573 0 123 -50 346 -169
747 -138 469 -181 758 -181 1218 l0 234 58 -47 c146 -119 320 -218 475 -270
150 -50 210 -59 402 -59 169 1 187 3 296 31 254 67 490 186 758 381 213 155
505 413 686 606 l103 110 6 -75 c20 -215 67 -393 142 -539 122 -239 345 -416
612 -487 88 -24 115 -26 282 -27 197 0 261 9 402 58 227 79 431 276 547 527
70 153 125 354 156 574 8 55 15 115 15 133 l0 32 -103 0 -102 0 -27 -132 c-84
-415 -236 -627 -462 -645 -78 -7 -174 10 -236 42 -49 25 -128 103 -153 151
-51 98 -84 280 -97 532 -5 99 -10 1078 -10 2215 l0 2037 -485 0 -485 0 -1
-2047 0 -2048 -87 -71 c-431 -352 -792 -558 -1086 -618 -141 -30 -357 -17
-493 29 -250 84 -456 285 -539 525 -33 93 -60 264 -73 448 -7 100 -11 783 -11
1968 l0 1814 -485 0 -485 0 0 -2758z"/>
</g>
</svg>
